<svg width="40" height="40" viewBox="0 0 40 40" fill="none" xmlns="http://www.w3.org/2000/svg">
<path d="M35.1502 11.6333C33.7336 10.0666 31.3669 9.28328 27.9336 9.28328H27.5336V9.21662C27.5336 6.41662 27.5336 2.94995 21.2669 2.94995H18.7336C12.4669 2.94995 12.4669 6.43328 12.4669 9.21662V9.29995H12.0669C8.61689 9.29995 6.26689 10.0833 4.85023 11.65C3.20023 13.4833 3.25023 15.95 3.41689 17.6333L3.43356 17.7499L3.56265 19.1054C3.58642 19.355 3.72086 19.5805 3.93068 19.7178C4.33036 19.9794 4.99927 20.4105 5.40023 20.6333C5.63356 20.7833 5.88356 20.9166 6.13356 21.05C8.98356 22.6166 12.1169 23.6666 15.3002 24.1833C15.4502 25.75 16.1336 27.5833 19.7836 27.5833C23.4336 27.5833 24.1502 25.7666 24.2669 24.15C27.6669 23.5999 30.9502 22.4166 33.9169 20.6833C34.0169 20.6333 34.0836 20.5833 34.1669 20.5333C34.8281 20.1596 35.5141 19.6991 36.1393 19.248C36.3277 19.1121 36.4481 18.902 36.4738 18.6712L36.5002 18.4333L36.5836 17.65C36.6002 17.55 36.6002 17.4666 36.6169 17.3499C36.7502 15.6666 36.7169 13.3666 35.1502 11.6333ZM21.8169 23.0499C21.8169 24.8166 21.8169 25.0833 19.7669 25.0833C17.7169 25.0833 17.7169 24.7666 17.7169 23.0666V20.9666H21.8169V23.0499ZM14.8502 9.28328V9.21662C14.8502 6.38328 14.8502 5.33328 18.7336 5.33328H21.2669C25.1502 5.33328 25.1502 6.39995 25.1502 9.21662V9.29995H14.8502V9.28328Z" fill="#A21CAF"/>
<path d="M34.789 22.8902C35.3784 22.6097 36.0571 23.0768 35.9981 23.7268L35.3999 30.3165C35.0499 33.6499 33.6832 37.0499 26.3499 37.0499H13.6499C6.31657 37.0499 4.9499 33.6499 4.5999 30.3332L4.03205 24.0868C3.97365 23.4444 4.63691 22.9778 5.22463 23.2437C7.12366 24.1029 10.6289 25.6272 12.7942 26.1943C13.068 26.266 13.2895 26.462 13.4094 26.7185C14.421 28.882 16.6151 30.0332 19.7832 30.0332C22.9201 30.0332 25.1418 28.8377 26.1568 26.6688C26.2769 26.4122 26.4986 26.2163 26.7726 26.1442C29.0718 25.5391 32.8029 23.8353 34.789 22.8902Z" fill="#A21CAF"/>
</svg>
