<svg width="40" height="40" viewBox="0 0 40 40" fill="none" xmlns="http://www.w3.org/2000/svg">
<path d="M17.6668 6.91659C17.6668 7.23325 17.4002 7.49992 17.0835 7.49992H15.2002C11.6002 7.49992 8.66683 10.4333 8.66683 14.0333V29.4166C8.66683 29.7333 8.40016 29.9999 8.0835 29.9999H6.91683C4.9335 29.9999 3.3335 28.3999 3.3335 26.4166V6.91659C3.3335 4.93325 4.9335 3.33325 6.91683 3.33325H14.0835C16.0668 3.33325 17.6668 4.93325 17.6668 6.91659Z" fill="#0550A1"/>
<path d="M36.6663 6.91659V26.4166C36.6663 28.3999 35.0663 29.9999 33.083 29.9999H32.033C31.7163 29.9999 31.4497 29.7333 31.4497 29.4166V14.0333C31.4497 10.4333 28.5163 7.49992 24.9163 7.49992H22.9163C22.5997 7.49992 22.333 7.23325 22.333 6.91659C22.333 4.93325 23.933 3.33325 25.9163 3.33325H33.083C35.0663 3.33325 36.6663 4.93325 36.6663 6.91659Z" fill="#0550A1"/>
<path d="M24.917 10H15.2003C12.967 10 11.167 11.8 11.167 14.0333V32.6333C11.167 34.8667 12.967 36.6667 15.2003 36.6667H17.917C18.3837 36.6667 18.7503 36.3 18.7503 35.8333V31.6667C18.7503 30.9833 19.317 30.4167 20.0003 30.4167C20.6837 30.4167 21.2503 30.9833 21.2503 31.6667V35.8333C21.2503 36.3 21.617 36.6667 22.0837 36.6667H24.9337C27.1503 36.6667 28.9503 34.8667 28.9503 32.65V14.0333C28.9503 11.8 27.1503 10 24.917 10ZM23.3337 24.5833H16.667C15.9837 24.5833 15.417 24.0167 15.417 23.3333C15.417 22.65 15.9837 22.0833 16.667 22.0833H23.3337C24.017 22.0833 24.5837 22.65 24.5837 23.3333C24.5837 24.0167 24.017 24.5833 23.3337 24.5833ZM23.3337 19.5833H16.667C15.9837 19.5833 15.417 19.0167 15.417 18.3333C15.417 17.65 15.9837 17.0833 16.667 17.0833H23.3337C24.017 17.0833 24.5837 17.65 24.5837 18.3333C24.5837 19.0167 24.017 19.5833 23.3337 19.5833Z" fill="#0550A1"/>
</svg>
