<svg width="40" height="40" viewBox="0 0 40 40" fill="none" xmlns="http://www.w3.org/2000/svg">
<path d="M20.0002 3.33325C10.8168 3.33325 3.3335 10.8166 3.3335 19.9999C3.3335 29.1833 10.8168 36.6666 20.0002 36.6666C29.1835 36.6666 36.6668 29.1833 36.6668 19.9999C36.6668 10.8166 29.1835 3.33325 20.0002 3.33325ZM27.2502 25.9499C27.0168 26.3499 26.6002 26.5666 26.1668 26.5666C25.9502 26.5666 25.7335 26.5166 25.5335 26.3833L20.3668 23.2999C19.0835 22.5333 18.1335 20.8499 18.1335 19.3666V12.5333C18.1335 11.8499 18.7002 11.2833 19.3835 11.2833C20.0668 11.2833 20.6335 11.8499 20.6335 12.5333V19.3666C20.6335 19.9666 21.1335 20.8499 21.6502 21.1499L26.8168 24.2333C27.4168 24.5833 27.6168 25.3499 27.2502 25.9499Z" fill="#0550A1"/>
</svg>
