<svg width="352" height="114" viewBox="0 0 352 114" fill="none" xmlns="http://www.w3.org/2000/svg">
<path fill-rule="evenodd" clip-rule="evenodd" d="M100.252 32.7696C98.8258 30.1642 96.7459 27.9394 94.2427 26.3391L75.8842 14.6055L75.8808 14.6122C69.708 10.6594 62.1139 8.26275 49.9733 14.797C51.7526 14.1235 53.772 14.3074 55.415 15.3567L87.9648 36.1599C89.7168 37.2816 90.7786 39.2175 90.7786 41.2988V42.9576V43.9944V44.5412V45.5578V47.5301C95.0174 47.5051 99.313 47.5028 102.436 47.5575V41.2983C102.436 38.3256 101.682 35.3765 100.253 32.7692L100.252 32.7696ZM90.9489 88.0167L90.7781 92.3511C90.7781 95.7005 91.1213 98.9732 87.6096 100.897C85.6545 101.967 83.2723 101.886 81.3969 100.686L78.1421 98.606L78.1089 98.5848L84.2366 113.298H84.2477C87.3197 113.373 90.4138 112.651 93.2088 111.121C98.2066 108.384 101.566 104.244 102.305 98.6871L95.4513 98.7216L90.9489 88.0162V88.0167ZM78.1089 98.5848L74.028 95.9765C62.4033 89.3933 49.5835 97.5144 49.5835 97.5144C51.4517 96.6557 53.651 96.7892 55.4146 97.9162L69.3442 106.819L75.119 110.511C77.8982 112.286 81.0557 113.22 84.2371 113.299L78.1094 98.5853L78.1089 98.5848Z" fill="white"/>
<path fill-rule="evenodd" clip-rule="evenodd" d="M40.7419 85.3541L33.5213 89.9703L21.0394 97.9488C18.8338 99.3586 15.9283 99.2237 13.8437 97.4885C12.4219 96.3091 11.6568 94.5135 11.6568 92.6664V89.8978V88.5975V42.7743C11.6568 42.7224 11.6568 42.6739 11.6568 42.6235V42.203V38.5598C11.6568 36.479 12.7186 34.5432 14.472 33.421L43.3819 14.9443L45.6955 13.4655C45.9634 13.3008 46.2509 13.1275 46.5571 12.9495C46.5571 12.9475 46.559 12.9475 46.559 12.9475C47.0194 12.6763 47.52 12.3883 48.0533 12.0926C48.0845 12.0787 48.1157 12.0701 48.1469 12.0576C53.9381 8.94097 58.6944 7.85904 62.7567 8.00592C65.293 7.98672 67.6497 8.43889 69.5457 8.98273L59.8651 2.79457C57.0067 0.96577 53.699 0 50.304 0C46.9085 0 43.6008 0.96576 40.7414 2.796L8.19312 23.5978C5.688 25.199 3.61009 27.4239 2.18161 30.0303C0.755049 32.6371 0 35.5862 0 38.5589V92.809C0 99.2981 3.53568 105.265 9.22512 108.382C14.9165 111.498 21.8491 111.264 27.3154 107.77L33.5208 103.803L47.0189 95.1754C47.2579 95.0232 47.5037 94.8898 47.7567 94.7736C47.7567 94.7736 51.6643 91.9815 57.0341 91.0435C54.1387 90.9658 51.5463 90.5544 49.7885 88.908C47.8536 87.0965 47.0117 85.2951 46.68 82.8216C45.3945 83.0506 43.2106 83.6741 40.7414 85.3531L40.7419 85.3541Z" fill="white"/>
<path fill-rule="evenodd" clip-rule="evenodd" d="M96.0846 97.8715L114.938 97.9392C115.647 95.1696 115.42 94.0032 117.477 91.9776C121.846 87.6735 128.625 89.0904 131.132 94.2994C131.721 95.522 131.713 96.8266 132.084 97.6786L140.54 97.8495C140.621 96.6423 140.729 94.9023 140.281 93.8861C139.692 92.5479 138.945 92.6434 137.722 92.1235C137.595 86.9059 137.689 81.5957 137.689 76.368C137.689 70.1967 138.086 67.1794 135.193 62.9012C133.419 60.2775 129.458 57.144 125.351 56.8292C121.089 56.5023 113.692 56.5373 109.394 56.7999L109.298 70.9652L107.257 71.0631C107.11 67.6315 107.699 51.1599 107.027 49.6459C106.411 49.0099 100.44 48.9336 93.8679 49.0359C86.4745 49.1506 78.3207 49.4919 76.179 49.5159C76.3993 50.7202 80.2633 59.7384 81.0457 61.5859L96.0846 97.8715Z" fill="white"/>
<path fill-rule="evenodd" clip-rule="evenodd" d="M65.0487 57.0989C66.2573 59.3362 72.0154 73.7995 73.5068 77.3823C74.9353 80.8143 76.3431 84.1992 77.784 87.6437C79.2 91.0291 80.7236 94.452 81.9869 97.9306L90.1422 97.943L70.2053 49.524L20.0837 49.5082C20.1413 53.16 22.8648 55.9978 25.8274 56.8037C28.2543 57.4637 61.0748 57.1128 65.0487 57.0998V57.0989Z" fill="white"/>
<path fill-rule="evenodd" clip-rule="evenodd" d="M113.641 76.1638L133.364 76.2066C133.597 70.1034 133.442 65.9514 129.304 62.9744C127.36 61.5757 125.543 61.0813 122.445 61.0866C119.606 61.0914 116.516 60.968 113.71 61.1312L113.641 76.1643V76.1638Z" fill="#0550A1"/>
<path fill-rule="evenodd" clip-rule="evenodd" d="M67.6687 73.7193L64.5895 66.1914L31.4004 66.1655C32.0575 75.0129 40.902 73.7193 45.7159 73.7193C53.008 73.7193 60.3761 73.7174 67.6687 73.7188V73.7193Z" fill="white"/>
<path fill-rule="evenodd" clip-rule="evenodd" d="M74.5902 90.2218L71.4989 82.8005L54.8065 82.7141L48.2444 82.6997C48.4729 85.0123 49.1501 86.6247 50.8825 88.2461C52.5802 89.8359 55.2149 90.0389 58.093 90.0317C63.77 90.0178 68.9415 90.3826 74.5906 90.2213L74.5902 90.2218Z" fill="white"/>
<path fill-rule="evenodd" clip-rule="evenodd" d="M123.495 90.8396C127.402 90.8396 130.569 94.0066 130.569 97.9129C130.569 101.82 127.402 104.987 123.495 104.987C119.589 104.987 116.422 101.82 116.422 97.9129C116.422 94.0062 119.589 90.8396 123.495 90.8396Z" fill="white"/>
<mask id="mask0_782_41268" style="mask-type:luminance" maskUnits="userSpaceOnUse" x="116" y="90" width="15" height="15">
<path d="M123.495 90.8396C127.402 90.8396 130.569 94.0066 130.569 97.9129C130.569 101.82 127.402 104.987 123.495 104.987C119.589 104.987 116.422 101.82 116.422 97.9129C116.422 94.0062 119.589 90.8396 123.495 90.8396Z" fill="white"/>
</mask>
<g mask="url(#mask0_782_41268)">
<path d="M123.532 91.0027V105.495" stroke="#0550A1" stroke-width="0.33312" stroke-miterlimit="2.61313"/>
<path d="M126.744 91.7534L120.321 104.744" stroke="#0550A1" stroke-width="0.33312" stroke-miterlimit="2.61313"/>
<path d="M129.29 93.8501L117.774 102.648" stroke="#0550A1" stroke-width="0.33312" stroke-miterlimit="2.61313"/>
<path d="M130.644 96.8582L116.421 99.6397" stroke="#0550A1" stroke-width="0.33312" stroke-miterlimit="2.61313"/>
<path d="M130.523 100.154L116.541 96.3438" stroke="#0550A1" stroke-width="0.33312" stroke-miterlimit="2.61313"/>
<path d="M128.955 103.056L118.11 93.4421" stroke="#0550A1" stroke-width="0.33312" stroke-miterlimit="2.61313"/>
<path d="M126.262 104.961L120.802 91.5369" stroke="#0550A1" stroke-width="0.33312" stroke-miterlimit="2.61313"/>
</g>
<path d="M123.495 101.095C125.252 101.095 126.677 99.6704 126.677 97.9134C126.677 96.1563 125.252 94.7319 123.495 94.7319C121.738 94.7319 120.314 96.1563 120.314 97.9134C120.314 99.6704 121.738 101.095 123.495 101.095Z" fill="#0550A1"/>
<path d="M202.338 108.582L202.323 102.502L199.341 107.511H198.284L195.317 102.632V108.582H193.116V98.4485H195.056L198.849 104.746L202.584 98.4485H204.509L204.538 108.582H202.338ZM211.85 108.756C210.798 108.756 209.848 108.529 208.998 108.076C208.159 107.622 207.498 106.999 207.015 106.208C206.542 105.407 206.306 104.509 206.306 103.515C206.306 102.521 206.542 101.629 207.015 100.837C207.498 100.036 208.159 99.4088 208.998 98.9552C209.848 98.5016 210.798 98.2748 211.85 98.2748C212.902 98.2748 213.848 98.5016 214.688 98.9552C215.527 99.4088 216.188 100.036 216.671 100.837C217.154 101.629 217.395 102.521 217.395 103.515C217.395 104.509 217.154 105.407 216.671 106.208C216.188 106.999 215.527 107.622 214.688 108.076C213.848 108.529 212.902 108.756 211.85 108.756ZM211.85 106.758C212.449 106.758 212.989 106.623 213.472 106.353C213.954 106.073 214.331 105.687 214.601 105.195C214.881 104.702 215.021 104.143 215.021 103.515C215.021 102.888 214.881 102.328 214.601 101.836C214.331 101.344 213.954 100.963 213.472 100.692C212.989 100.413 212.449 100.273 211.85 100.273C211.252 100.273 210.711 100.413 210.229 100.692C209.746 100.963 209.365 101.344 209.085 101.836C208.815 102.328 208.68 102.888 208.68 103.515C208.68 104.143 208.815 104.702 209.085 105.195C209.365 105.687 209.746 106.073 210.229 106.353C210.711 106.623 211.252 106.758 211.85 106.758ZM228.561 98.4485L224.175 108.582H221.858L217.486 98.4485H220.02L223.103 105.687L226.23 98.4485H228.561ZM237.254 106.7V108.582H229.407V98.4485H237.065V100.33H231.738V102.531H236.443V104.355H231.738V106.7H237.254ZM242.771 103.602H246.868V105.412H242.771V103.602ZM252.904 98.4485H255.249V108.582H252.904V98.4485ZM266.948 98.4485V108.582H265.023L259.97 102.43V108.582H257.654V98.4485H259.594L264.632 104.601V98.4485H266.948ZM272.997 103.602H277.094V105.412H272.997V103.602ZM288.037 108.756C286.985 108.756 286.035 108.529 285.185 108.076C284.346 107.622 283.685 106.999 283.202 106.208C282.729 105.407 282.493 104.509 282.493 103.515C282.493 102.521 282.729 101.629 283.202 100.837C283.685 100.036 284.346 99.4088 285.185 98.9552C286.035 98.5016 286.985 98.2748 288.037 98.2748C289.089 98.2748 290.035 98.5016 290.875 98.9552C291.714 99.4088 292.375 100.036 292.858 100.837C293.341 101.629 293.582 102.521 293.582 103.515C293.582 104.509 293.341 105.407 292.858 106.208C292.375 106.999 291.714 107.622 290.875 108.076C290.035 108.529 289.089 108.756 288.037 108.756ZM288.037 106.758C288.636 106.758 289.176 106.623 289.659 106.353C290.141 106.073 290.518 105.687 290.788 105.195C291.068 104.702 291.208 104.143 291.208 103.515C291.208 102.888 291.068 102.328 290.788 101.836C290.518 101.344 290.141 100.963 289.659 100.692C289.176 100.413 288.636 100.273 288.037 100.273C287.439 100.273 286.898 100.413 286.416 100.692C285.933 100.963 285.552 101.344 285.272 101.836C285.002 102.328 284.867 102.888 284.867 103.515C284.867 104.143 285.002 104.702 285.272 105.195C285.552 105.687 285.933 106.073 286.416 106.353C286.898 106.623 287.439 106.758 288.037 106.758ZM299.847 108.756C298.399 108.756 297.27 108.355 296.459 107.554C295.658 106.753 295.258 105.61 295.258 104.123V98.4485H297.603V104.037C297.603 105.851 298.356 106.758 299.861 106.758C300.595 106.758 301.154 106.541 301.54 106.107C301.927 105.663 302.12 104.973 302.12 104.037V98.4485H304.436V104.123C304.436 105.61 304.03 106.753 303.22 107.554C302.419 108.355 301.294 108.756 299.847 108.756ZM308.683 100.359H305.44V98.4485H314.271V100.359H311.028V108.582H308.683V100.359Z" fill="white"/>
<path d="M156.21 61.6639H169.992C173.285 61.6639 176.189 62.2995 178.702 63.5707C181.245 64.8131 183.209 66.5755 184.596 68.8579C186.012 71.1403 186.72 73.7983 186.72 76.832C186.72 79.8656 186.012 82.5236 184.596 84.806C183.209 87.0884 181.245 88.8653 178.702 90.1365C176.189 91.3788 173.285 92 169.992 92H156.21V61.6639ZM169.645 86.2361C172.678 86.2361 175.091 85.3983 176.882 83.7226C178.702 82.018 179.612 79.7211 179.612 76.832C179.612 73.9428 178.702 71.6604 176.882 69.9847C175.091 68.2801 172.678 67.4278 169.645 67.4278H163.231V86.2361H169.645ZM215.503 86.3662V92H192.014V61.6639H214.94V67.2977H198.992V73.885H213.076V79.3455H198.992V86.3662H215.503ZM226.68 92.52C224.628 92.52 222.736 92.1445 221.003 91.3933C219.298 90.6132 217.897 89.5153 216.799 88.0996L220.699 83.4192C222.346 85.6439 224.224 86.7562 226.333 86.7562C229.193 86.7562 230.623 85.0805 230.623 81.7291V67.2977H219.962V61.6639H237.601V81.339C237.601 85.066 236.676 87.8685 234.827 89.7465C232.978 91.5955 230.262 92.52 226.68 92.52ZM263.879 85.4994H249.794L247.108 92H239.914L253.435 61.6639H260.369L273.933 92H266.566L263.879 85.4994ZM261.669 80.1689L256.858 68.5545L252.048 80.1689H261.669ZM318.52 61.6639L305.389 92H298.455L285.367 61.6639H292.951L302.182 83.3325L311.543 61.6639H318.52ZM335.165 92.52C330.832 92.52 327.451 91.321 325.025 88.9231C322.627 86.5251 321.428 83.1014 321.428 78.6521V61.6639H328.448V78.3921C328.448 83.8237 330.702 86.5395 335.209 86.5395C337.405 86.5395 339.08 85.8894 340.236 84.5893C341.392 83.2603 341.969 81.1946 341.969 78.3921V61.6639H348.903V78.6521C348.903 83.1014 347.69 86.5251 345.263 88.9231C342.865 91.321 339.499 92.52 335.165 92.52Z" fill="white"/>
</svg>
