<svg width="200" height="200" viewBox="0 0 200 200" fill="none" xmlns="http://www.w3.org/2000/svg">
<path d="M49.7246 184.21L49.7101 178.13L46.7279 183.139H45.6711L42.7033 178.26V184.21H40.5028V174.076H42.4427L46.2357 180.374L49.9707 174.076H51.8961L51.925 184.21H49.7246ZM59.237 184.384C58.185 184.384 57.2343 184.157 56.385 183.704C55.5454 183.25 54.8843 182.627 54.4017 181.836C53.9288 181.035 53.6923 180.137 53.6923 179.143C53.6923 178.149 53.9288 177.257 54.4017 176.465C54.8843 175.664 55.5454 175.037 56.385 174.583C57.2343 174.13 58.185 173.903 59.237 173.903C60.2889 173.903 61.2348 174.13 62.0744 174.583C62.9141 175.037 63.5752 175.664 64.0577 176.465C64.5403 177.257 64.7816 178.149 64.7816 179.143C64.7816 180.137 64.5403 181.035 64.0577 181.836C63.5752 182.627 62.9141 183.25 62.0744 183.704C61.2348 184.157 60.2889 184.384 59.237 184.384ZM59.237 182.386C59.8353 182.386 60.3758 182.251 60.8584 181.981C61.3409 181.701 61.7173 181.315 61.9875 180.823C62.2674 180.33 62.4074 179.771 62.4074 179.143C62.4074 178.516 62.2674 177.956 61.9875 177.464C61.7173 176.972 61.3409 176.591 60.8584 176.32C60.3758 176.04 59.8353 175.901 59.237 175.901C58.6386 175.901 58.0981 176.04 57.6156 176.32C57.133 176.591 56.7518 176.972 56.4719 177.464C56.2017 177.956 56.0665 178.516 56.0665 179.143C56.0665 179.771 56.2017 180.33 56.4719 180.823C56.7518 181.315 57.133 181.701 57.6156 181.981C58.0981 182.251 58.6386 182.386 59.237 182.386ZM75.9477 174.076L71.5612 184.21H69.2449L64.873 174.076H67.4064L70.49 181.315L73.6169 174.076H75.9477ZM84.6402 182.328V184.21H76.7938V174.076H84.452V175.958H79.1246V178.159H83.8295V179.983H79.1246V182.328H84.6402ZM90.1574 179.23H94.2543V181.04H90.1574V179.23ZM100.29 174.076H102.636V184.21H100.29V174.076ZM114.335 174.076V184.21H112.409L107.357 178.058V184.21H105.041V174.076H106.98L112.018 180.229V174.076H114.335ZM120.383 179.23H124.48V181.04H120.383V179.23ZM135.424 184.384C134.372 184.384 133.421 184.157 132.572 183.704C131.732 183.25 131.071 182.627 130.589 181.836C130.116 181.035 129.879 180.137 129.879 179.143C129.879 178.149 130.116 177.257 130.589 176.465C131.071 175.664 131.732 175.037 132.572 174.583C133.421 174.13 134.372 173.903 135.424 173.903C136.476 173.903 137.422 174.13 138.261 174.583C139.101 175.037 139.762 175.664 140.245 176.465C140.727 177.257 140.969 178.149 140.969 179.143C140.969 180.137 140.727 181.035 140.245 181.836C139.762 182.627 139.101 183.25 138.261 183.704C137.422 184.157 136.476 184.384 135.424 184.384ZM135.424 182.386C136.022 182.386 136.563 182.251 137.045 181.981C137.528 181.701 137.904 181.315 138.175 180.823C138.454 180.33 138.594 179.771 138.594 179.143C138.594 178.516 138.454 177.956 138.175 177.464C137.904 176.972 137.528 176.591 137.045 176.32C136.563 176.04 136.022 175.901 135.424 175.901C134.826 175.901 134.285 176.04 133.803 176.32C133.32 176.591 132.939 176.972 132.659 177.464C132.389 177.956 132.254 178.516 132.254 179.143C132.254 179.771 132.389 180.33 132.659 180.823C132.939 181.315 133.32 181.701 133.803 181.981C134.285 182.251 134.826 182.386 135.424 182.386ZM147.233 184.384C145.786 184.384 144.657 183.983 143.846 183.182C143.045 182.381 142.644 181.238 142.644 179.751V174.076H144.989V179.664C144.989 181.479 145.742 182.386 147.248 182.386C147.981 182.386 148.541 182.169 148.927 181.735C149.313 181.291 149.506 180.601 149.506 179.664V174.076H151.823V179.751C151.823 181.238 151.417 182.381 150.606 183.182C149.805 183.983 148.681 184.384 147.233 184.384ZM156.07 175.987H152.827V174.076H161.658V175.987H158.415V184.21H156.07V175.987Z" fill="#0046B0"/>
<path fill-rule="evenodd" clip-rule="evenodd" d="M128.205 45.2696C126.778 42.6642 124.699 40.4394 122.195 38.8391L103.837 27.1055L103.833 27.1122C97.6606 23.1594 90.0665 20.7627 77.9259 27.297C79.7053 26.6235 81.7246 26.8074 83.3677 27.8567L115.917 48.6599C117.669 49.7816 118.731 51.7175 118.731 53.7988V55.4576V56.4944V57.0412V58.0578V60.0301C122.97 60.0051 127.266 60.0028 130.389 60.0575V53.7983C130.389 50.8256 129.634 47.8765 128.206 45.2692L128.205 45.2696ZM118.902 100.517L118.731 104.851C118.731 108.201 119.074 111.473 115.562 113.397C113.607 114.467 111.225 114.386 109.35 113.186L106.095 111.106L106.062 111.085L112.189 125.798H112.2C115.272 125.873 118.366 125.151 121.161 123.621C126.159 120.884 129.519 116.744 130.257 111.187L123.404 111.222L118.902 100.516V100.517ZM106.062 111.085L101.981 108.477C90.356 101.893 77.5361 110.014 77.5361 110.014C79.4043 109.156 81.6037 109.289 83.3672 110.416L97.2968 119.319L103.072 123.011C105.851 124.786 109.008 125.72 112.19 125.799L106.062 111.085L106.062 111.085Z" fill="#0046B0"/>
<path fill-rule="evenodd" clip-rule="evenodd" d="M68.6945 97.8541L61.4739 102.47L48.992 110.449C46.7864 111.859 43.881 111.724 41.7963 109.988C40.3746 108.809 39.6094 107.013 39.6094 105.166V102.398V101.097V55.2743C39.6094 55.2224 39.6094 55.1739 39.6094 55.1235V54.703V51.0598C39.6094 48.979 40.6712 47.0432 42.4246 45.921L71.3345 27.4443L73.6481 25.9655C73.916 25.8008 74.2035 25.6275 74.5098 25.4495C74.5098 25.4475 74.5117 25.4475 74.5117 25.4475C74.972 25.1763 75.4726 24.8883 76.0059 24.5926C76.0371 24.5787 76.0683 24.5701 76.0995 24.5576C81.8907 21.441 86.6471 20.359 90.7093 20.5059C93.2456 20.4867 95.6024 20.9389 97.4984 21.4827L87.8178 15.2946C84.9594 13.4658 81.6517 12.5 78.2566 12.5C74.8611 12.5 71.5534 13.4658 68.6941 15.296L36.1458 36.0978C33.6406 37.699 31.5627 39.9239 30.1342 42.5303C28.7077 45.1371 27.9526 48.0862 27.9526 51.0589V105.309C27.9526 111.798 31.4883 117.765 37.1778 120.882C42.8691 123.998 49.8018 123.764 55.268 120.27L61.4734 116.303L74.9715 107.675C75.2106 107.523 75.4563 107.39 75.7093 107.274C75.7093 107.274 79.617 104.481 84.9867 103.544C82.0914 103.466 79.4989 103.054 77.7411 101.408C75.8063 99.5965 74.9643 97.7951 74.6326 95.3216C73.3472 95.5506 71.1632 96.1741 68.6941 97.8531L68.6945 97.8541Z" fill="#0046B0"/>
<path fill-rule="evenodd" clip-rule="evenodd" d="M124.037 110.372L142.891 110.439C143.6 107.67 143.373 106.503 145.429 104.478C149.799 100.173 156.578 101.59 159.085 106.799C159.673 108.022 159.665 109.327 160.036 110.179L168.493 110.349C168.574 109.142 168.682 107.402 168.234 106.386C167.644 105.048 166.897 105.143 165.675 104.624C165.548 99.4059 165.641 94.0957 165.641 88.868C165.641 82.6967 166.039 79.6794 163.146 75.4012C161.372 72.7775 157.41 69.644 153.304 69.3292C149.041 69.0023 141.645 69.0373 137.347 69.2999L137.251 83.4652L135.21 83.5631C135.063 80.1315 135.651 63.6599 134.98 62.1459C134.364 61.5099 128.393 61.4336 121.821 61.5359C114.427 61.6506 106.273 61.9919 104.132 62.0159C104.352 63.2202 108.216 72.2384 108.998 74.0859L124.037 110.372Z" fill="#0046B0"/>
<path fill-rule="evenodd" clip-rule="evenodd" d="M93.0013 69.5989C94.21 71.8362 99.9681 86.2995 101.459 89.8823C102.888 93.3143 104.296 96.6992 105.737 100.144C107.153 103.529 108.676 106.952 109.94 110.431L118.095 110.443L98.158 62.024L48.0364 62.0082C48.094 65.66 50.8175 68.4978 53.78 69.3037C56.2069 69.9637 89.0274 69.6128 93.0013 69.5998V69.5989Z" fill="#0046B0"/>
<path fill-rule="evenodd" clip-rule="evenodd" d="M141.594 88.664L161.317 88.7067C161.549 82.6035 161.395 78.4515 157.257 75.4745C155.313 74.0758 153.495 73.5814 150.397 73.5867C147.558 73.5915 144.469 73.4681 141.662 73.6313L141.594 88.6645V88.664Z" fill="white"/>
<path fill-rule="evenodd" clip-rule="evenodd" d="M95.6213 86.2193L92.5421 78.6914L59.353 78.6655C60.0101 87.5129 68.8546 86.2193 73.6685 86.2193C80.9607 86.2193 88.3287 86.2174 95.6213 86.2188V86.2193Z" fill="#0046B0"/>
<path fill-rule="evenodd" clip-rule="evenodd" d="M102.543 102.722L99.4516 95.3005L82.7591 95.2141L76.197 95.1997C76.4255 97.5123 77.1028 99.1247 78.8351 100.746C80.5329 102.336 83.1676 102.539 86.0456 102.532C91.7226 102.518 96.8941 102.883 102.543 102.721L102.543 102.722Z" fill="#0046B0"/>
<path fill-rule="evenodd" clip-rule="evenodd" d="M151.448 103.34C155.355 103.34 158.521 106.507 158.521 110.413C158.521 114.32 155.354 117.487 151.448 117.487C147.541 117.487 144.374 114.32 144.374 110.413C144.374 106.506 147.541 103.34 151.448 103.34Z" fill="#0046B0"/>
<mask id="mask0_780_38120" style="mask-type:luminance" maskUnits="userSpaceOnUse" x="144" y="103" width="15" height="15">
<path d="M151.448 103.34C155.355 103.34 158.521 106.507 158.521 110.413C158.521 114.32 155.354 117.487 151.448 117.487C147.541 117.487 144.374 114.32 144.374 110.413C144.374 106.506 147.541 103.34 151.448 103.34Z" fill="white"/>
</mask>
<g mask="url(#mask0_780_38120)">
<path d="M151.485 103.503V117.995" stroke="#FEFEFE" stroke-width="0.33312" stroke-miterlimit="2.61313"/>
<path d="M154.697 104.253L148.273 117.244" stroke="#FEFEFE" stroke-width="0.33312" stroke-miterlimit="2.61313"/>
<path d="M157.243 106.35L145.727 115.148" stroke="#FEFEFE" stroke-width="0.33312" stroke-miterlimit="2.61313"/>
<path d="M158.596 109.358L144.374 112.14" stroke="#FEFEFE" stroke-width="0.33312" stroke-miterlimit="2.61313"/>
<path d="M158.476 112.654L144.494 108.844" stroke="#FEFEFE" stroke-width="0.33312" stroke-miterlimit="2.61313"/>
<path d="M156.908 115.556L146.063 105.942" stroke="#FEFEFE" stroke-width="0.33312" stroke-miterlimit="2.61313"/>
<path d="M154.215 117.461L148.755 104.037" stroke="#FEFEFE" stroke-width="0.33312" stroke-miterlimit="2.61313"/>
</g>
<path d="M151.448 113.595C153.205 113.595 154.63 112.17 154.63 110.413C154.63 108.656 153.205 107.232 151.448 107.232C149.691 107.232 148.267 108.656 148.267 110.413C148.267 112.17 149.691 113.595 151.448 113.595Z" fill="#FEFEFE"/>
<path d="M3.59699 137.292H17.3783C20.6719 137.292 23.5755 137.927 26.089 139.199C28.6315 140.441 30.5961 142.203 31.9829 144.486C33.3986 146.768 34.1064 149.426 34.1064 152.46C34.1064 155.493 33.3986 158.152 31.9829 160.434C30.5961 162.716 28.6315 164.493 26.089 165.764C23.5755 167.007 20.6719 167.628 17.3783 167.628H3.59699V137.292ZM17.0316 161.864C20.0652 161.864 22.4776 161.026 24.2689 159.351C26.089 157.646 26.9991 155.349 26.9991 152.46C26.9991 149.571 26.089 147.288 24.2689 145.613C22.4776 143.908 20.0652 143.056 17.0316 143.056H10.6176V161.864H17.0316ZM62.8898 161.994V167.628H39.401V137.292H62.3265V142.926H46.3783V149.513H60.463V154.973H46.3783V161.994H62.8898ZM74.0665 168.148C72.0152 168.148 70.1228 167.772 68.3893 167.021C66.6847 166.241 65.2834 165.143 64.1856 163.728L68.0859 159.047C69.7327 161.272 71.6107 162.384 73.7198 162.384C76.58 162.384 78.0101 160.708 78.0101 157.357V142.926H67.3492V137.292H84.9875V156.967C84.9875 160.694 84.0629 163.496 82.2139 165.374C80.3648 167.223 77.649 168.148 74.0665 168.148ZM111.266 161.127H97.1811L94.4942 167.628H87.3002L100.821 137.292H107.755L121.32 167.628H113.953L111.266 161.127ZM109.056 155.797L104.245 144.182L99.4347 155.797H109.056ZM165.907 137.292L152.775 167.628H145.841L132.754 137.292H140.338L149.568 158.96L158.929 137.292H165.907ZM182.552 168.148C178.218 168.148 174.838 166.949 172.411 164.551C170.013 162.153 168.814 158.729 168.814 154.28V137.292H175.835V154.02C175.835 159.452 178.088 162.167 182.596 162.167C184.791 162.167 186.467 161.517 187.623 160.217C188.778 158.888 189.356 156.823 189.356 154.02V137.292H196.29V154.28C196.29 158.729 195.077 162.153 192.65 164.551C190.252 166.949 186.886 168.148 182.552 168.148Z" fill="#0046B0"/>
</svg>
