<svg width="94" height="40" viewBox="0 0 94 40" fill="none" xmlns="http://www.w3.org/2000/svg">
<path d="M0.836555 31.1111H19.6277V25.8429H7.55655V1.45182H0.836555V31.1111Z" fill="white"/>
<path d="M31.9816 27.0045C28.5801 27.0045 26.672 24.5156 26.672 20.3674V20.0356C26.672 15.8874 28.6631 13.4815 31.9816 13.4815C35.3416 13.4815 37.2912 15.9704 37.2912 20.1185V20.4089C37.2912 24.5156 35.3416 27.0045 31.9816 27.0045ZM31.9401 31.5674C38.4527 31.5674 43.389 27.2119 43.389 20.3674V20.0356C43.389 13.2741 38.4942 8.91855 31.9816 8.91855C25.469 8.91855 20.5327 13.3571 20.5327 20.16V20.4919C20.5327 27.2533 25.469 31.5674 31.9401 31.5674Z" fill="white"/>
<path d="M55.7995 39.1171C62.9343 39.1171 67.2069 35.84 67.2484 29.4104V9.41633H61.2751V12.6519C60.0306 10.4534 57.9151 8.91855 54.3892 8.91855C48.9966 8.91855 44.8484 13.2741 44.8484 19.4963V19.7867C44.8484 26.2163 49.038 30.1571 54.3062 30.1571C57.5003 30.1571 60.0721 28.2489 61.2751 26.1333V29.4104C61.2751 32.8119 59.4499 34.72 55.7995 34.72C52.7299 34.72 51.361 33.4756 50.9877 31.5674H45.0143C45.5951 36.0474 48.7892 39.1171 55.7995 39.1171ZM56.0899 25.6356C53.1032 25.6356 50.9877 23.3956 50.9877 19.7867V19.4548C50.9877 15.8874 52.8543 13.4815 56.2143 13.4815C59.4914 13.4815 61.441 15.7215 61.441 19.4133V19.7037C61.441 23.3956 59.2425 25.6356 56.0899 25.6356Z" fill="white"/>
<path d="M81.4246 27.0045C78.0231 27.0045 76.115 24.5156 76.115 20.3674V20.0356C76.115 15.8874 78.1061 13.4815 81.4246 13.4815C84.7846 13.4815 86.7343 15.9704 86.7343 20.1185V20.4089C86.7343 24.5156 84.7846 27.0045 81.4246 27.0045ZM81.3831 31.5674C87.8957 31.5674 92.832 27.2119 92.832 20.3674V20.0356C92.832 13.2741 87.9372 8.91855 81.4246 8.91855C74.912 8.91855 69.9757 13.3571 69.9757 20.16V20.4919C69.9757 27.2533 74.912 31.5674 81.3831 31.5674Z" fill="white"/>
</svg>
