<svg width="80" height="80" viewBox="0 0 80 80" fill="none" xmlns="http://www.w3.org/2000/svg">
<rect width="80" height="80" rx="40" fill="#EA580C"/>
<path d="M40 50.6999C41.8004 50.6999 43.26 49.2404 43.26 47.4399C43.26 45.6395 41.8004 44.1799 40 44.1799C38.1995 44.1799 36.74 45.6395 36.74 47.4399C36.74 49.2404 38.1995 50.6999 40 50.6999Z" fill="white"/>
<path d="M52.56 35.06V32.56C52.56 27.16 51.26 20 40 20C28.74 20 27.44 27.16 27.44 32.56V35.06C21.84 35.76 20 38.6 20 45.58V49.3C20 57.5 22.5 60 30.7 60H49.3C57.5 60 60 57.5 60 49.3V45.58C60 38.6 58.16 35.76 52.56 35.06ZM40 53.48C36.66 53.48 33.96 50.76 33.96 47.44C33.96 44.1 36.68 41.4 40 41.4C43.32 41.4 46.04 44.12 46.04 47.44C46.04 50.78 43.34 53.48 40 53.48ZM30.7 34.88C30.54 34.88 30.4 34.88 30.24 34.88V32.56C30.24 26.7 31.9 22.8 40 22.8C48.1 22.8 49.76 26.7 49.76 32.56V34.9C49.6 34.9 49.46 34.9 49.3 34.9H30.7V34.88Z" fill="white"/>
</svg>
