<svg width="94" height="40" viewBox="0 0 94 40" fill="none" xmlns="http://www.w3.org/2000/svg">
<path d="M0.836914 31.111H19.6281V25.8429H7.55691V1.45178H0.836914V31.111Z" fill="#0550A1"/>
<path d="M31.9821 27.0045C28.5806 27.0045 26.6725 24.5156 26.6725 20.3675V20.0356C26.6725 15.8875 28.6636 13.4815 31.9821 13.4815C35.3421 13.4815 37.2917 15.9704 37.2917 20.1186V20.4089C37.2917 24.5156 35.3421 27.0045 31.9821 27.0045ZM31.9406 31.5675C38.4532 31.5675 43.3895 27.2119 43.3895 20.3675V20.0356C43.3895 13.2741 38.4947 8.91858 31.9821 8.91858C25.4695 8.91858 20.5332 13.3571 20.5332 20.16V20.4919C20.5332 27.2534 25.4695 31.5675 31.9406 31.5675Z" fill="#0550A1"/>
<path d="M55.7997 39.1171C62.9346 39.1171 67.2071 35.84 67.2486 29.4104V9.41636H61.2753V12.6519C60.0309 10.4534 57.9153 8.91858 54.3894 8.91858C48.9968 8.91858 44.8486 13.2741 44.8486 19.4963V19.7867C44.8486 26.2163 49.0383 30.1571 54.3064 30.1571C57.5005 30.1571 60.0723 28.2489 61.2753 26.1334V29.4104C61.2753 32.8119 59.4501 34.72 55.7997 34.72C52.7301 34.72 51.3612 33.4756 50.9879 31.5675H45.0146C45.5953 36.0475 48.7894 39.1171 55.7997 39.1171ZM56.0901 25.6356C53.1034 25.6356 50.9879 23.3956 50.9879 19.7867V19.4549C50.9879 15.8875 52.8546 13.4815 56.2146 13.4815C59.4916 13.4815 61.4412 15.7215 61.4412 19.4134V19.7038C61.4412 23.3956 59.2427 25.6356 56.0901 25.6356Z" fill="#0550A1"/>
<path d="M81.4245 27.0045C78.023 27.0045 76.1148 24.5156 76.1148 20.3675V20.0356C76.1148 15.8875 78.106 13.4815 81.4245 13.4815C84.7845 13.4815 86.7341 15.9704 86.7341 20.1186V20.4089C86.7341 24.5156 84.7845 27.0045 81.4245 27.0045ZM81.383 31.5675C87.8956 31.5675 92.8319 27.2119 92.8319 20.3675V20.0356C92.8319 13.2741 87.9371 8.91858 81.4245 8.91858C74.9119 8.91858 69.9756 13.3571 69.9756 20.16V20.4919C69.9756 27.2534 74.9119 31.5675 81.383 31.5675Z" fill="#0550A1"/>
</svg>
