<svg width="40" height="40" viewBox="0 0 40 40" fill="none" xmlns="http://www.w3.org/2000/svg">
<path d="M30.8998 6.86673L21.7332 3.4334C20.7832 3.0834 19.2332 3.0834 18.2832 3.4334L9.1165 6.86673C7.34984 7.5334 5.9165 9.60006 5.9165 11.4834V24.9834C5.9165 26.3334 6.79984 28.1167 7.88317 28.9167L17.0498 35.7667C18.6665 36.9834 21.3165 36.9834 22.9332 35.7667L32.0998 28.9167C33.1832 28.1001 34.0665 26.3334 34.0665 24.9834V11.4834C34.0832 9.60006 32.6498 7.5334 30.8998 6.86673ZM25.7998 16.2001L18.6332 23.3667C18.3832 23.6167 18.0665 23.7334 17.7498 23.7334C17.4332 23.7334 17.1165 23.6167 16.8665 23.3667L14.1998 20.6667C13.7165 20.1834 13.7165 19.3834 14.1998 18.9001C14.6832 18.4167 15.4832 18.4167 15.9665 18.9001L17.7665 20.7001L24.0498 14.4167C24.5332 13.9334 25.3332 13.9334 25.8165 14.4167C26.2998 14.9001 26.2998 15.7167 25.7998 16.2001Z" fill="#F59E0B"/>
</svg>
