<svg width="80" height="80" viewBox="0 0 80 80" fill="none" xmlns="http://www.w3.org/2000/svg">
<rect width="80" height="80" rx="40" fill="#F59E0B"/>
<path d="M54 46C49.58 46 46 49.58 46 54C46 55.5 46.42 56.92 47.16 58.12C48.54 60.44 51.08 62 54 62C56.92 62 59.46 60.44 60.84 58.12C61.58 56.92 62 55.5 62 54C62 49.58 58.42 46 54 46ZM58.14 53.14L53.88 57.08C53.6 57.34 53.22 57.48 52.86 57.48C52.48 57.48 52.1 57.34 51.8 57.04L49.82 55.06C49.24 54.48 49.24 53.52 49.82 52.94C50.4 52.36 51.36 52.36 51.94 52.94L52.9 53.9L56.1 50.94C56.7 50.38 57.66 50.42 58.22 51.02C58.78 51.62 58.74 52.56 58.14 53.14Z" fill="white"/>
<path d="M60 31.0998V31.9998C60 33.0998 59.1 33.9998 58 33.9998H22C20.9 33.9998 20 33.0998 20 31.9998V31.0798C20 26.4998 23.7 22.7998 28.28 22.7998H51.7C56.28 22.7998 60 26.5198 60 31.0998Z" fill="white"/>
<path d="M20 39V48.92C20 53.5 23.7 57.2 28.28 57.2H40.8C41.96 57.2 42.96 56.22 42.86 55.06C42.58 52 43.56 48.68 46.28 46.04C47.4 44.94 48.78 44.1 50.28 43.62C52.78 42.82 55.2 42.92 57.34 43.64C58.64 44.08 60 43.14 60 41.76V38.98C60 37.88 59.1 36.98 58 36.98H22C20.9 37 20 37.9 20 39ZM32 50.5H28C27.18 50.5 26.5 49.82 26.5 49C26.5 48.18 27.18 47.5 28 47.5H32C32.82 47.5 33.5 48.18 33.5 49C33.5 49.82 32.82 50.5 32 50.5Z" fill="white"/>
</svg>
