<svg width="80" height="80" viewBox="0 0 80 80" fill="none" xmlns="http://www.w3.org/2000/svg">
<rect width="80" height="80" rx="40" fill="#0550A1"/>
<path d="M53.08 24.2399L42.08 20.1199C40.94 19.6999 39.08 19.6999 37.94 20.1199L26.94 24.2399C24.82 25.0399 23.1 27.5199 23.1 29.7799V45.9799C23.1 47.5999 24.16 49.7399 25.46 50.6999L36.46 58.9199C38.4 60.3799 41.58 60.3799 43.52 58.9199L54.52 50.6999C55.82 49.7199 56.88 47.5999 56.88 45.9799V29.7799C56.9 27.5199 55.18 25.0399 53.08 24.2399ZM46.96 35.4399L38.36 44.0399C38.06 44.3399 37.68 44.4799 37.3 44.4799C36.92 44.4799 36.54 44.3399 36.24 44.0399L33.04 40.7999C32.46 40.2199 32.46 39.2599 33.04 38.6799C33.62 38.0999 34.58 38.0999 35.16 38.6799L37.32 40.8399L44.86 33.2999C45.44 32.7199 46.4 32.7199 46.98 33.2999C47.56 33.8799 47.56 34.8599 46.96 35.4399Z" fill="white"/>
</svg>
