<svg width="40" height="40" viewBox="0 0 40 40" fill="none" xmlns="http://www.w3.org/2000/svg">
<path d="M36.6672 18.2833V21.7166C36.6672 22.6333 35.9339 23.3833 35.0005 23.4166H31.7339C29.9339 23.4166 28.2839 22.0999 28.1339 20.2999C28.0339 19.2499 28.4339 18.2666 29.1339 17.5833C29.7505 16.9499 30.6005 16.5833 31.5339 16.5833H35.0005C35.9339 16.6166 36.6672 17.3666 36.6672 18.2833Z" fill="#EA580C"/>
<path d="M34.1168 25.9166H31.7335C28.5668 25.9166 25.9002 23.5333 25.6335 20.4999C25.4835 18.7666 26.1168 17.0333 27.3835 15.7999C28.4502 14.6999 29.9335 14.0833 31.5335 14.0833H34.1168C34.6002 14.0833 35.0002 13.6833 34.9502 13.1999C34.5835 9.14992 31.9002 6.38325 27.9168 5.91659C27.5168 5.84992 27.1002 5.83325 26.6668 5.83325H11.6668C11.2002 5.83325 10.7502 5.86659 10.3168 5.93325C6.06683 6.46659 3.3335 9.63325 3.3335 14.1666V25.8333C3.3335 30.4333 7.06683 34.1666 11.6668 34.1666H26.6668C31.3335 34.1666 34.5502 31.2499 34.9502 26.7999C35.0002 26.3166 34.6002 25.9166 34.1168 25.9166ZM21.6668 16.2499H11.6668C10.9835 16.2499 10.4168 15.6833 10.4168 14.9999C10.4168 14.3166 10.9835 13.7499 11.6668 13.7499H21.6668C22.3502 13.7499 22.9168 14.3166 22.9168 14.9999C22.9168 15.6833 22.3502 16.2499 21.6668 16.2499Z" fill="#EA580C"/>
</svg>
